<?xml version="1.0" encoding="UTF-8"?>
<svg id="Layer_1" xmlns="http://www.w3.org/2000/svg" version="1.1" viewBox="0 0 1082.6 932.87">
  <!-- Generator: Adobe Illustrator 29.1.0, SVG Export Plug-In . SVG Version: 2.1.0 Build 142)  -->
  <defs>
    <style>
      .st0 {
        fill: #e92827;
      }
    </style>
  </defs>
  <path class="st0" d="M922.76,39.5C879.15,15.45,829.21,1.66,775.73,1.66c-94.31,0-178.52,42.89-234.23,110.34C485.39,44.55,401.14,1.66,306.69,1.66c-53.1,0-103.04,13.79-146.84,37.83C65.92,91.49,2.37,191.39,2.37,306.36c0,32.82,5.39,64.31,15.07,93.74,52.19,235,524.05,531.11,524.05,531.11,0,0,471.28-296.11,523.62-531.11,9.68-29.43,15.12-60.92,15.12-93.74,0-114.97-63.54-214.68-157.48-266.86h0Z"/>
</svg>